<svg width="999" height="819" viewBox="0 0 999 819" fill="none" xmlns="http://www.w3.org/2000/svg">
<g id="No Results">
<g id="circle">
<path id="Stroke 1" d="M33.1113 375.749V384.217" stroke="#D48625" stroke-width="3.99986" stroke-linecap="round"/>
<g id="Group 8">
<path id="Stroke 2" d="M14.0918 380.335L21.011 387.458" stroke="#D48625" stroke-width="3.99986" stroke-linecap="round"/>
<path id="Stroke 4" d="M6 399.296H15.7837" stroke="#D48625" stroke-width="3.99986" stroke-linecap="round"/>
<path id="Stroke 6" d="M13.2949 418.594L20.2141 411.472" stroke="#D48625" stroke-width="3.99986" stroke-linecap="round"/>
</g>
<path id="Stroke 9" d="M33.1113 420.909V412.442" stroke="#D48625" stroke-width="3.99986" stroke-linecap="round"/>
<path id="Stroke 10" d="M47.2232 415.265L41.5781 409.62" stroke="#D48625" stroke-width="3.99986" stroke-linecap="round"/>
<path id="Stroke 11" d="M58.5125 401.152H50.0449" stroke="#D48625" stroke-width="3.99986" stroke-linecap="round"/>
<path id="Stroke 12" d="M52.8716 381.395L47.2266 387.04" stroke="#D48625" stroke-width="3.99986" stroke-linecap="round"/>
<path id="Stroke 13" d="M487.541 5.99963V11.6447" stroke="#D48625" stroke-width="3.99986" stroke-linecap="round"/>
<path id="Stroke 15" d="M470.602 22.9343H476.247" stroke="#D48625" stroke-width="3.99986" stroke-linecap="round"/>
<path id="Stroke 16" d="M487.541 39.8693V34.2242" stroke="#D48625" stroke-width="3.99986" stroke-linecap="round"/>
<path id="Stroke 17" d="M501.647 22.9343H496.002" stroke="#D48625" stroke-width="3.99986" stroke-linecap="round"/>
<path id="Stroke 18" d="M160.125 243.092V251.559" stroke="#D48625" stroke-width="3.99986" stroke-linecap="round"/>
<path id="Stroke 19" d="M134.719 268.494H143.186" stroke="#D48625" stroke-width="3.99986" stroke-linecap="round"/>
<path id="Stroke 20" d="M160.125 291.074V282.606" stroke="#D48625" stroke-width="3.99986" stroke-linecap="round"/>
<path id="Stroke 21" d="M182.702 268.494H174.234" stroke="#D48625" stroke-width="3.99986" stroke-linecap="round"/>
<g id="Group 42">
<path id="Stroke 22" d="M767.683 550.857C774.428 550.857 779.898 556.329 779.898 563.076C779.898 569.825 774.428 575.295 767.683 575.295C760.937 575.295 755.467 569.825 755.467 563.076" stroke="#D48625" stroke-width="3.99986" stroke-linecap="round"/>
<path id="Fill 26" fill-rule="evenodd" clip-rule="evenodd" d="M823.588 440C830.841 437.737 841.96 428.866 844.533 419.322C846.867 427.759 856.651 437.737 865.478 438.492C855.541 442.011 846.04 452.463 844.533 460.675C843.508 452.305 830.367 441.22 823.588 440Z" fill="#F78036"/>
<path id="Fill 28" fill-rule="evenodd" clip-rule="evenodd" d="M79.0371 547.092C82.665 545.96 88.2218 541.526 89.5085 536.754C90.6755 540.97 95.5661 545.96 99.9799 546.339C95.0126 548.096 90.2633 553.324 89.5085 557.429C88.9957 553.244 82.4253 547.701 79.0371 547.092Z" fill="#F78036"/>
<path id="Fill 30" fill-rule="evenodd" clip-rule="evenodd" d="M146.362 154.456C146.362 159.69 142.121 163.93 136.89 163.93C131.657 163.93 127.418 159.69 127.418 154.456C127.418 149.223 131.657 144.981 136.89 144.981C142.121 144.981 146.362 149.223 146.362 154.456Z" fill="#D1D8DF"/>
<path id="Fill 32" fill-rule="evenodd" clip-rule="evenodd" d="M778.877 179.897C778.877 188.643 771.786 195.733 763.045 195.733C754.299 195.733 747.211 188.643 747.211 179.897C747.211 171.151 754.299 164.061 763.045 164.061C771.786 164.061 778.877 171.151 778.877 179.897Z" fill="#F78036"/>
<path id="Fill 34" fill-rule="evenodd" clip-rule="evenodd" d="M998.169 136.991C998.169 143.93 992.548 149.553 985.613 149.553C978.676 149.553 973.055 143.93 973.055 136.991C973.055 130.053 978.676 124.43 985.613 124.43C992.548 124.43 998.169 130.053 998.169 136.991Z" fill="#F78036"/>
<path id="Stroke 36" fill-rule="evenodd" clip-rule="evenodd" d="M323.39 723.675C323.39 728.049 319.846 731.594 315.473 731.594C311.103 731.594 307.559 728.049 307.559 723.675C307.559 719.301 311.103 715.756 315.473 715.756C319.846 715.756 323.39 719.301 323.39 723.675Z" stroke="#D48625" stroke-width="3.99986" stroke-linecap="round"/>
<path id="Stroke 38" fill-rule="evenodd" clip-rule="evenodd" d="M318.681 93.5864C318.681 98.821 314.439 103.061 309.209 103.061C303.978 103.061 299.736 98.821 299.736 93.5864C299.736 88.3541 303.978 84.1117 309.209 84.1117C314.439 84.1117 318.681 88.3541 318.681 93.5864Z" stroke="#D48625" stroke-width="3.99986" stroke-linecap="round"/>
<path id="Stroke 40" fill-rule="evenodd" clip-rule="evenodd" d="M560.294 811.366C554.241 813.67 547.467 810.628 545.164 804.576C542.861 798.522 545.9 791.743 551.955 789.443C558.005 787.139 564.78 790.178 567.082 796.233C569.387 802.287 566.347 809.063 560.294 811.366Z" stroke="#D48625" stroke-width="3.99986" stroke-linecap="round"/>
</g>
</g>
<g id="search">
<g id="documents">
<path id="Fill 1" fill-rule="evenodd" clip-rule="evenodd" d="M584.898 553.769H378.835C364.331 553.769 352.459 541.861 352.459 527.309V233.453C352.459 218.9 364.331 206.999 378.835 206.999H584.898C599.407 206.999 611.279 218.9 611.279 233.453V527.309C611.279 541.861 599.407 553.769 584.898 553.769Z" fill="#754304"/>
<path id="Fill 3" fill-rule="evenodd" clip-rule="evenodd" d="M567.314 566.332H361.251C346.747 566.332 334.875 554.425 334.875 539.873V246.017C334.875 231.464 346.747 219.563 361.251 219.563H567.314C581.823 219.563 593.695 231.464 593.695 246.017V539.873C593.695 554.425 581.823 566.332 567.314 566.332Z" fill="#D48724"/>
<path id="Fill 5" fill-rule="evenodd" clip-rule="evenodd" d="M550.199 576.251H343.71C329.176 576.251 317.279 564.393 317.279 549.901V257.261C317.279 242.769 329.176 230.917 343.71 230.917H550.199C564.738 230.917 576.635 242.769 576.635 257.261V549.901C576.635 564.393 564.738 576.251 550.199 576.251Z" fill="#D8DBEA"/>
<path id="Fill 8" fill-rule="evenodd" clip-rule="evenodd" d="M550.199 576.251H343.71C329.176 576.251 317.279 564.393 317.279 549.901V257.261C317.279 242.769 329.176 230.917 343.71 230.917H550.199C564.738 230.917 576.635 242.769 576.635 257.261V549.901C576.635 564.393 564.738 576.251 550.199 576.251Z" fill="#FFDCAE"/>
<path id="Fill 11" fill-rule="evenodd" clip-rule="evenodd" d="M520.432 320.076H367.915C363.559 320.076 359.994 316.684 359.994 312.54C359.994 308.391 363.559 304.999 367.915 304.999H520.432C524.788 304.999 528.353 308.391 528.353 312.54C528.353 316.684 524.788 320.076 520.432 320.076Z" fill="#D48724"/>
<path id="Fill 13" fill-rule="evenodd" clip-rule="evenodd" d="M520.432 365.307H367.915C363.559 365.307 359.994 361.915 359.994 357.771C359.994 353.622 363.559 350.23 367.915 350.23H520.432C524.788 350.23 528.353 353.622 528.353 357.771C528.353 361.915 524.788 365.307 520.432 365.307Z" fill="#D48724"/>
<path id="Fill 15" fill-rule="evenodd" clip-rule="evenodd" d="M520.432 410.537H367.915C363.559 410.537 359.994 407.145 359.994 403.001C359.994 398.858 363.559 395.46 367.915 395.46H520.432C524.788 395.46 528.353 398.858 528.353 403.001C528.353 407.145 524.788 410.537 520.432 410.537Z" fill="#D48724"/>
<path id="Fill 17" fill-rule="evenodd" clip-rule="evenodd" d="M520.432 455.768H367.915C363.559 455.768 359.994 452.376 359.994 448.233C359.994 444.083 363.559 440.691 367.915 440.691H520.432C524.788 440.691 528.353 444.083 528.353 448.233C528.353 452.376 524.788 455.768 520.432 455.768Z" fill="#D48724"/>
<path id="Fill 19" fill-rule="evenodd" clip-rule="evenodd" d="M447.527 500.999H367.949C363.575 500.999 359.994 497.607 359.994 493.463C359.994 489.314 363.575 485.922 367.949 485.922H447.527C451.901 485.922 455.481 489.314 455.481 493.463C455.481 497.607 451.901 500.999 447.527 500.999Z" fill="#D48724"/>
</g>
</g>
</g>
</svg>
